<?xml version="1.0" standalone="no"?>
<!DOCTYPE svg PUBLIC "-//W3C//DTD SVG 20010904//EN"
 "http://www.w3.org/TR/2001/REC-SVG-20010904/DTD/svg10.dtd">
<svg version="1.0" xmlns="http://www.w3.org/2000/svg"
 width="15.000000pt" height="14.000000pt" viewBox="0 0 15.000000 14.000000"
 preserveAspectRatio="xMidYMid meet">

<g transform="translate(0.000000,14.000000) scale(0.100000,-0.100000)"
fill="#000000" stroke="none">
<path d="M11 126 c-7 -8 -11 -37 -9 -67 l3 -53 70 0 70 0 0 58 c0 67 -19 91
-55 69 -12 -8 -21 -9 -25 -3 -9 15 -41 12 -54 -4z m57 -56 l3 -55 -31 0 c-29
0 -30 1 -30 51 0 57 5 66 35 62 17 -3 20 -11 23 -58z m70 0 l3 -55 -31 0 c-29
0 -30 1 -30 51 0 57 5 66 35 62 17 -3 20 -11 23 -58z"/>
<path d="M28 63 c6 -2 18 -2 25 0 6 3 1 5 -13 5 -14 0 -19 -2 -12 -5z"/>
<path d="M98 103 c6 -2 18 -2 25 0 6 3 1 5 -13 5 -14 0 -19 -2 -12 -5z"/>
</g>
</svg>
