<?xml version="1.0" standalone="no"?>
<!DOCTYPE svg PUBLIC "-//W3C//DTD SVG 20010904//EN"
 "http://www.w3.org/TR/2001/REC-SVG-20010904/DTD/svg10.dtd">
<svg version="1.0" xmlns="http://www.w3.org/2000/svg"
 width="1598.000000pt" height="1598.000000pt" viewBox="0 0 1598.000000 1598.000000"
 preserveAspectRatio="xMidYMid meet">

<g transform="translate(0.000000,1598.000000) scale(0.100000,-0.100000)"
fill="#FF0000" stroke="none">
<path d="M2820 14570 l0 -470 -470 0 -470 0 0 -470 0 -470 -470 0 -470 0 0
-1880 0 -1880 470 0 470 0 0 -470 0 -470 470 0 470 0 0 -470 0 -470 470 0 470
0 0 -470 0 -470 470 0 470 0 0 -470 0 -470 470 0 470 0 0 -470 0 -470 470 0
470 0 0 -470 0 -470 470 0 470 0 0 -470 0 -470 470 0 470 0 0 470 0 470 470 0
470 0 0 470 0 470 470 0 470 0 0 470 0 470 470 0 470 0 0 470 0 470 470 0 470
0 0 470 0 470 470 0 470 0 0 470 0 470 470 0 470 0 0 470 0 470 470 0 470 0 0
1880 0 1880 -470 0 -470 0 0 470 0 470 -470 0 -470 0 0 470 0 470 -1880 0
-1880 0 0 -470 0 -470 -470 0 -470 0 0 -470 0 -470 -470 0 -470 0 0 470 0 470
-470 0 -470 0 0 470 0 470 -1880 0 -1880 0 0 -470z m2820 -1880 l0 -470 -470
0 -470 0 0 -470 0 -470 -470 0 -470 0 0 -470 0 -470 -470 0 -470 0 0 940 0
940 470 0 470 0 0 470 0 470 940 0 940 0 0 -470z"/>
</g>
</svg>
